<svg id="Layer_1" xmlns="http://www.w3.org/2000/svg" width="138.2" height="166" viewBox="-81.2 -0.5 138.2 166"><style>.st0{fill:#fff}</style><path class="st0" d="M-39.6 137.8h13.8v13.8h-13.8zm69.1-41.3V54.8H57V-.5H2v13.8h41.2V41H29.4v13.8H15.6v55.5h13.8V124h13.8v27.7H1.9v-13.9h-13.8v13.9H1.9v13.8H57v-55.2H29.5v-10.1zm-55.3 55.2H-12v13.8h-13.8zm-27.7 0h13.8v13.8h-13.8zm-13.8-13.9h13.8v13.8h-13.8zm-13.9 13.9h13.8v13.8h-13.8zm69.3-24.3V27.1h-13.9v110.7h13.9z"/><path class="st0" d="M-11.9 13.3H1.9v13.8h-13.8z"/></svg>