<svg id="Layer_1" xmlns="http://www.w3.org/2000/svg" width="349.4" height="152"><style>.st0{fill:#fff}</style><path class="st0" d="M335.2 91.7V76.4H166.7V30.6H153V15.3h-15.3v15.3h13.7v106.2H30.5v-15H15.2V137h15.3v15h303.7v-15h15.3V91.7h-14.3zm-1.1 14.8v30.3h-15.3v-15h-15.3v15h-14.3v-15h-15.3v15h-15.3v-15h-15.3v15H228v-15h-15.3v15h-15.3v-15H182v15h-15.3V91.7h167.4v14.8zM15.2 15.3h15.3v15.3H15.2z"/><path class="st0" d="M-.1 30.6h15.3v91.2H-.1zm61.3-15.3h76.5V0H30.5v15.3h15.3zM98.9 93V62.4H68.2V93h15.4z"/></svg>