<svg id="Layer_1" xmlns="http://www.w3.org/2000/svg" width="336.4" height="152"><style>.st0{fill:#fff}</style><path class="st0" d="M15.3 15.3h15.3v15.3H15.3zM0 30.6h15.3v91.2H0zm137.8 14.9h15.3v15.3h-15.3zm45.4 0h15.3v15.3h-15.3zm-45.4 45.9h15.3v15.3h-15.3zm45.4 0h15.3v15.3h-15.3zm122.5-76.1H321v15.3h-15.3zm0 121.4h-45.9V152h45.9v-15H321v-15.3h-15.3zM321 30.6h15.3v91.2H321z"/><path class="st0" d="M259.8 121.7V15.3h45.9V0H30.6v15.3h45.9v121.5H30.6v-15H15.3V137h15.3v15h229.1v-30.3zm-15.3 15H91.9V15.3h152.5v121.4z"/></svg>