<svg id="Layer_1" xmlns="http://www.w3.org/2000/svg" width="352.2" height="152"><style>.st0{fill:#fff}</style><path class="st0" d="M15.3 106.2V60.3H0v76.4h15.3v-15.3zm91.9-30.6v45.8h15.3V60.3h-15.3v15.3zM45.9 60.3h61.3V45.1H15.3v15.2h15.3zm153.2-14.4h15.3v15.3h-15.3z"/><path class="st0" d="M168.5 76.4v15.3h15.3V76.4h15.3V61.2h-15.3V0h-15.3v61.2h-15.4v15.2z"/><path class="st0" d="M137.8 45.9h15.3v15.3h-15.3zm199.1 14.4V45.1H245v15.2h-15.3v61.1H245V60.3h91.9v76.4h15.3V60.3z"/><path class="st0" d="M306.3 136.7h-76.6v-15.3h-15.3v15.3h-76.6v-15.3h-15.3v15.3H15.3V152h321.6v-15.3h-15.3z"/></svg>