<svg xmlns="http://www.w3.org/2000/svg" width="352" height="95.6"><path d="M62.7 25.8l-8.4-10L57 0 42.1 17H26.9c-.6-2-2.5-3.4-4.6-3.4-2.7 0-4.9 2.2-4.9 4.9s2.2 4.9 4.9 4.9c2.2 0 4-1.4 4.6-3.4h12.2l-6 3.3-2.4 5.7H20.5c-.6-2-2.5-3.4-4.6-3.4-2.7 0-4.9 2.2-4.9 4.9s2.2 4.9 4.9 4.9c2.2 0 4-1.4 4.6-3.4h8.9l-4.3 9.9H14.9c-.6-2-2.5-3.4-4.6-3.4-2.7 0-4.9 2.2-4.9 4.9s2.2 4.9 4.9 4.9c2.2 0 4-1.4 4.6-3.4h8.9l-4.2 9.6h-10c-.6-2-2.5-3.4-4.6-3.4-2.8 0-5 2.2-5 4.9s2.2 4.9 4.9 4.9c2.2 0 4-1.4 4.6-3.4h8.8l-2.9 6.7 36.3 31.4 9.4-27.4-10.2-15.6 7 4 4.9 6.6 11.7-2.8 2.2-10L63.8 31l-1.1-5.2zm-40.4-5.4c-1 0-1.9-.9-1.9-1.9s.9-1.9 1.9-1.9 1.9.9 1.9 1.9-.9 1.9-1.9 1.9zm-6.5 12c-1 0-1.9-.9-1.9-1.9s.9-1.9 1.9-1.9 1.9.9 1.9 1.9-.8 1.9-1.9 1.9zm-5.5 12.9c-1.1 0-1.9-.9-1.9-1.9 0-1 .9-1.9 1.9-1.9 1 0 1.9.9 1.9 1.9 0 1-.9 1.9-1.9 1.9zM4.9 57.9C3.9 57.9 3 57 3 56s.9-1.9 1.9-1.9c1.1 0 1.9.9 1.9 1.9s-.8 1.9-1.9 1.9zm67.1 0l-7.9 1.9-4.1-5.6-18.4-10.3 16.2 24.7-7.5 21.8-31.3-27 16.5-38 8-4.4 8.8-11.1-1.1 6.7h.1l-.1.1L60 27.2l1 5L73.5 51 72 57.9zm35.8-.1h1.2v3.7c0 .2.1.3.2.4.1.1.2.2.4.2h1.6c.2 0 .3-.1.4-.2.1-.1.2-.3.2-.4v-3.7h1.2c2.6 0 4.7-.6 6.2-1.7 1.5-1.2 2.3-2.9 2.3-5.4v-1c0-2.2-.7-3.9-2.2-5.1-1.5-1.2-3.6-1.8-6.3-1.8h-1.2v-2.9c0-.2-.1-.3-.2-.4s-.2-.2-.4-.2h-1.6c-.2 0-.3.1-.4.2-.1.1-.2.3-.2.4v2.9h-1.2c-2.7 0-4.8.6-6.3 1.8-1.5 1.2-2.2 2.9-2.2 5.1v1c0 2.3.7 4.1 2.2 5.3 1.5 1.2 3.6 1.8 6.3 1.8zm3.9-12.7h1.2c3.8 0 5.7 1.5 5.7 4.6v1c0 1.7-.5 2.9-1.4 3.7-.9.8-2.4 1.2-4.4 1.2h-1.2V45.1zm-9.6 4.6c0-3 1.9-4.6 5.7-4.6h1.2v10.3h-1.2c-2 0-3.5-.4-4.4-1.2-.9-.8-1.3-2-1.3-3.6v-.9zm37.3 12v-.2l-5.6-19.8c-.4-1.5-1.5-2.3-3.1-2.3s-2.7.8-3.1 2.3L122 61.5v.2c0 .3.2.5.5.5h1.8c.1 0 .2 0 .3-.1.1-.1.2-.2.2-.3l1.9-7h7.9l1.8 6.2c.2.7.3 1.1.4 1.2.1.1.2.1.3.1h1.8c.3-.2.5-.3.5-.6zm-12.1-9.4l2.4-8.5c.3-1.1.5-1.7.5-1.7 0-.1.1-.1.2-.2.1 0 .2-.1.3-.1.1 0 .2 0 .3.1.1 0 .1.1.2.2 0 .1.1.1.1.2s.2.9.7 2.4l2.1 7.7h-6.8zm23.2-14.2c1.5 0 2.6-.4 3.6-1.3.9-.9 1.4-1.9 1.4-3.1 0-.3-.1-.4-.4-.4H154c-.3 0-.4.2-.5.5-.1.8-.4 1.3-1 1.8-.6.4-1.3.7-2.1.7s-1.5-.2-2.1-.7c-.6-.4-.9-1-1-1.8 0-.3-.2-.5-.4-.5h-1.1c-.2 0-.3.1-.3.4 0 1.2.5 2.2 1.4 3.1 1 .8 2.2 1.3 3.6 1.3zm8.1 2.3c0-.2-.1-.4-.3-.6-.2-.2-.4-.3-.6-.3H156c-.4 0-.7 0-.8.1-.1.1-.3.2-.4.5L145.4 58V40.1c0-.1-.1-.3-.2-.4-.1-.1-.2-.2-.4-.2h-1.6c-.4 0-.5.2-.5.6v21.1c0 .2.1.4.3.6.2.2.4.3.6.3h1.9c.5 0 .8-.2 1-.5l9.4-17.8c0-.1.1-.1.1-.1v17.9c0 .2.1.3.2.4.1.1.2.2.4.2h1.6c.4 0 .5-.1.5-.4V40.4zm10.7 8.5c-.9 0-2 0-3.2.1v-7h9.4c.2 0 .3-.1.4-.2.1-.1.2-.3.2-.4v-1.2c0-.2-.1-.3-.2-.4-.1-.1-.3-.2-.4-.2h-11.6c-.4 0-.5.2-.5.6V61c0 .4.1.6.3.8.2.2.8.3 2 .4 1.1.1 2.4.1 3.7.1 5.9 0 8.9-2.1 8.9-6.4v-.5c-.1-4.3-3.1-6.5-9-6.5zm6.1 7c0 1.4-.5 2.5-1.4 3.1s-2.5 1-4.7 1c-.2 0-1.3 0-3.2-.1v-8.5c1.3-.1 2.4-.1 3.2-.1 2.2 0 3.8.3 4.7 1 .9.7 1.4 1.7 1.4 3.1v.5zm19.2-16.3c-.1 0-.4-.1-.9-.1s-1.3-.1-2.1-.1h-3c-2.2 0-3.8.4-4.9 1.3-1.1.9-1.6 2.3-1.6 4.3v11.7c0 1.9.5 3.4 1.6 4.3 1 .9 2.7 1.4 4.9 1.4 1.6 0 3 0 4.2-.1 1.2 0 1.8-.1 1.9-.2.1-.1.1-.2.1-.3v-1.5c0-.2-.1-.4-.3-.4h-5.9c-1.5 0-2.6-.2-3-.7-.5-.4-.7-1.3-.7-2.5v-5.1h9.3c.2 0 .3-.1.4-.2.1-.1.2-.3.2-.4v-1.1c0-.2-.1-.3-.2-.4-.1-.1-.3-.2-.4-.2h-9.3V45c0-1.4.3-2.3.9-2.6.6-.3 1.5-.5 2.9-.5h5.9c.2 0 .3-.1.3-.4V40c0-.1 0-.1-.1-.2s-.1-.2-.2-.2zm10-.3c-.8 0-1.9 0-3.3.1s-2.1.2-2.3.3c-.2.2-.2.4-.2.6v21.2c0 .2.1.3.2.4s.2.2.4.2h1.6c.2 0 .3-.1.4-.2.1-.1.2-.3.2-.4V53c1.3.1 2.3.1 3 .1 5.7 0 8.5-2.3 8.5-6.8v-.4c0-4.4-2.8-6.6-8.5-6.6zm5.8 7c0 1.6-.4 2.8-1.3 3.5-.9.7-2.4 1-4.4 1-.2 0-1.2 0-3-.1v-8.9c1-.1 2.1-.1 3-.1 2 0 3.5.3 4.4 1 .9.7 1.4 1.7 1.4 3.2v.4zm18.8 4.2l9.2-10.3c.1-.1.1-.2.1-.3 0-.2-.1-.3-.4-.3h-2.2c-.2 0-.4.1-.6.3L226.5 50v-9.8c0-.2-.1-.3-.2-.4-.1-.1-.3-.2-.4-.2h-1.6c-.2 0-.3.1-.4.2-.1.1-.2.3-.2.4v21.4c0 .2.1.3.2.4s.2.2.4.2h1.7c.2 0 .3-.1.4-.2.1-.1.2-.3.2-.4V51.4l8.6 10.4c.2.2.4.3.7.3h2.4c.3 0 .4-.1.4-.3 0-.1 0-.2-.1-.4l-9.4-10.9zm19.3-11.4c-2.5 0-4.5.8-6 2.4-1.5 1.6-2.2 4-2.2 7.2v3.9c0 3.1.7 5.5 2.2 7.1 1.4 1.6 3.5 2.4 6.1 2.4 2.6 0 4.6-.8 6.1-2.4 1.4-1.6 2.1-4 2.1-7.1v-3.9c0-3.1-.7-5.5-2.1-7.1-1.5-1.7-3.6-2.5-6.2-2.5zm5.4 13.5c0 4.7-1.8 7.1-5.4 7.1-3.6 0-5.5-2.4-5.5-7.1v-3.9c0-4.7 1.8-7.1 5.5-7.1 3.6 0 5.4 2.4 5.4 7.1v3.9zm22.3-13.1h-1.6c-.2 0-.3.1-.4.2-.1.1-.2.3-.2.4V49h-10.4v-8.8c0-.2-.1-.3-.2-.4-.1-.1-.3-.2-.4-.2h-1.5c-.2 0-.3.1-.4.2-.1.1-.2.3-.2.4v21.4c0 .2.1.3.2.4.1.1.3.2.4.2h1.5c.2 0 .3-.1.4-.2s.2-.3.2-.4V51.4H274v10.1c0 .2.1.3.2.4.1.1.3.2.4.2h1.6c.2 0 .3-.1.4-.2s.2-.3.2-.4V40.2c0-.2-.1-.3-.2-.4 0-.2-.2-.3-.4-.3zm20.7 0h-1.6c-.2 0-.3.1-.4.2-.1.1-.2.3-.2.4V49h-10.4v-8.8c0-.2-.1-.3-.2-.4-.1-.1-.3-.2-.4-.2h-1.5c-.2 0-.3.1-.4.2-.1.1-.2.3-.2.4v21.4c0 .2.1.3.2.4.1.1.3.2.4.2h1.5c.2 0 .3-.1.4-.2.1-.1.2-.3.2-.4V51.4h10.4v10.1c0 .2.1.3.2.4s.3.2.4.2h1.6c.2 0 .3-.1.4-.2.1-.1.2-.3.2-.4V40.2c0-.2-.1-.3-.2-.4-.1-.2-.2-.3-.4-.3zm17.9-.1c-.1 0-.4-.1-.9-.1s-1.3-.1-2.1-.1h-3c-2.2 0-3.8.4-4.9 1.3-1.1.9-1.6 2.3-1.6 4.3v11.7c0 1.9.5 3.4 1.6 4.3s2.7 1.4 4.9 1.4c1.6 0 3 0 4.2-.1 1.2 0 1.8-.1 1.9-.2.1-.1.1-.2.1-.3V60c0-.2-.1-.4-.3-.4h-5.9c-1.5 0-2.6-.2-3-.7-.5-.4-.7-1.3-.7-2.5v-5.1h9.3c.2 0 .3-.1.4-.2.1-.1.2-.3.2-.4v-1.1c0-.2-.1-.3-.2-.4-.1-.1-.3-.2-.4-.2H305v-4.2c0-1.4.3-2.3.9-2.6.6-.3 1.5-.5 2.9-.5h5.9c.2 0 .3-.1.3-.4v-1.5c0-.1 0-.1-.1-.2 0-.1 0-.2-.1-.2zm9.7 11.1l9.2-10.3c.1-.1.1-.2.1-.3 0-.2-.1-.3-.4-.3h-2.2c-.2 0-.4.1-.6.3L321.8 50v-9.8c0-.2-.1-.3-.2-.4s-.3-.2-.4-.2h-1.6c-.2 0-.3.1-.4.2-.1.1-.2.3-.2.4v21.4c0 .2.1.3.2.4.1.1.2.2.4.2h1.7c.2 0 .3-.1.4-.2.1-.1.2-.3.2-.4V51.4l8.6 10.4c.2.2.4.3.7.3h2.4c.3 0 .4-.1.4-.3 0-.1 0-.2-.1-.4l-9.4-10.9zm26.9-11h-14.6c-.2 0-.3.1-.4.2-.1.1-.2.2-.2.4v1.3c0 .3.2.5.6.5h5.9v19.6c0 .2.1.3.2.4.1.1.2.2.4.2h1.7c.1 0 .3-.1.4-.2.1-.1.2-.3.2-.4V41.9h5.9c.4 0 .6-.2.6-.5v-1.3c-.1-.4-.3-.6-.7-.6z" fill="#fff"/></svg>